<mxfile host="app.diagrams.net" modified="2023-10-30T01:09:48.028Z" agent="Mozilla/5.0 (Windows NT 10.0; Win64; x64; rv:109.0) Gecko/20100101 Firefox/119.0" etag="aOwLj9N8ekRc22kwIOdE" version="22.0.8" type="github">
  <diagram id="R2lEEEUBdFMjLlhIrx00" name="Page-1">
    <mxGraphModel dx="988" dy="530" grid="1" gridSize="10" guides="1" tooltips="1" connect="1" arrows="1" fold="1" page="1" pageScale="1" pageWidth="1650" pageHeight="1100" math="0" shadow="0" extFonts="Permanent Marker^https://fonts.googleapis.com/css?family=Permanent+Marker">
      <root>
        <mxCell id="0" />
        <mxCell id="1" parent="0" />
        <object label="" id="5m4vV9d6H3QpX--X7_wA-50">
          <mxCell style="shape=umlLifeline;perimeter=lifelinePerimeter;whiteSpace=wrap;html=1;container=1;dropTarget=0;collapsible=0;recursiveResize=0;outlineConnect=0;portConstraint=eastwest;newEdgeStyle={&quot;curved&quot;:0,&quot;rounded&quot;:0};participant=umlActor;size=40;" parent="1" vertex="1">
            <mxGeometry x="290" y="560" width="20" height="400" as="geometry" />
          </mxCell>
        </object>
        <mxCell id="5m4vV9d6H3QpX--X7_wA-51" value="Server" style="shape=umlLifeline;perimeter=lifelinePerimeter;whiteSpace=wrap;html=1;container=1;dropTarget=0;collapsible=0;recursiveResize=0;outlineConnect=0;portConstraint=eastwest;newEdgeStyle={&quot;curved&quot;:0,&quot;rounded&quot;:0};" parent="1" vertex="1">
          <mxGeometry x="540" y="550" width="100" height="410" as="geometry" />
        </mxCell>
        <mxCell id="5m4vV9d6H3QpX--X7_wA-53" value="Spieler" style="text;strokeColor=none;align=center;fillColor=none;html=1;verticalAlign=middle;whiteSpace=wrap;rounded=0;" parent="1" vertex="1">
          <mxGeometry x="270" y="530" width="60" height="30" as="geometry" />
        </mxCell>
        <mxCell id="5m4vV9d6H3QpX--X7_wA-55" value="Spiel beitreten" style="html=1;verticalAlign=bottom;startArrow=oval;startFill=1;endArrow=block;startSize=8;curved=0;rounded=0;" parent="1" edge="1">
          <mxGeometry width="60" relative="1" as="geometry">
            <mxPoint x="300.2222222222223" y="656" as="sourcePoint" />
            <mxPoint x="589.5" y="656" as="targetPoint" />
          </mxGeometry>
        </mxCell>
        <mxCell id="5m4vV9d6H3QpX--X7_wA-58" value="Message Broker" style="shape=umlLifeline;perimeter=lifelinePerimeter;whiteSpace=wrap;html=1;container=1;dropTarget=0;collapsible=0;recursiveResize=0;outlineConnect=0;portConstraint=eastwest;newEdgeStyle={&quot;curved&quot;:0,&quot;rounded&quot;:0};" parent="1" vertex="1">
          <mxGeometry x="680" y="550" width="100" height="410" as="geometry" />
        </mxCell>
        <mxCell id="5m4vV9d6H3QpX--X7_wA-60" value="Füge Spieler zu &lt;br&gt;ProjektThema hinzu" style="html=1;verticalAlign=bottom;startArrow=oval;startFill=1;endArrow=block;startSize=8;curved=0;rounded=0;" parent="1" edge="1">
          <mxGeometry width="60" relative="1" as="geometry">
            <mxPoint x="589.9285714285713" y="676" as="sourcePoint" />
            <mxPoint x="729.5" y="676" as="targetPoint" />
            <Array as="points">
              <mxPoint x="660" y="676" />
            </Array>
          </mxGeometry>
        </mxCell>
        <mxCell id="5m4vV9d6H3QpX--X7_wA-61" value="Admin" style="shape=umlLifeline;perimeter=lifelinePerimeter;whiteSpace=wrap;html=1;container=1;dropTarget=0;collapsible=0;recursiveResize=0;outlineConnect=0;portConstraint=eastwest;newEdgeStyle={&quot;curved&quot;:0,&quot;rounded&quot;:0};" parent="1" vertex="1">
          <mxGeometry x="810" y="550" width="100" height="410" as="geometry" />
        </mxCell>
        <mxCell id="5m4vV9d6H3QpX--X7_wA-62" value="Andere Spieler" style="shape=umlLifeline;perimeter=lifelinePerimeter;whiteSpace=wrap;html=1;container=1;dropTarget=0;collapsible=0;recursiveResize=0;outlineConnect=0;portConstraint=eastwest;newEdgeStyle={&quot;curved&quot;:0,&quot;rounded&quot;:0};" parent="1" vertex="1">
          <mxGeometry x="940" y="550" width="100" height="410" as="geometry" />
        </mxCell>
        <mxCell id="5m4vV9d6H3QpX--X7_wA-63" value="Benachichtige&lt;br&gt;Admins" style="html=1;verticalAlign=bottom;startArrow=oval;startFill=1;endArrow=block;startSize=8;curved=0;rounded=0;" parent="1" edge="1">
          <mxGeometry width="60" relative="1" as="geometry">
            <mxPoint x="729.9285714285713" y="706" as="sourcePoint" />
            <mxPoint x="859.5" y="706" as="targetPoint" />
            <Array as="points">
              <mxPoint x="730" y="706" />
            </Array>
          </mxGeometry>
        </mxCell>
        <mxCell id="5m4vV9d6H3QpX--X7_wA-64" value="Starte Spiel" style="html=1;verticalAlign=bottom;startArrow=oval;startFill=1;endArrow=block;startSize=8;curved=0;rounded=0;" parent="1" target="5m4vV9d6H3QpX--X7_wA-51" edge="1">
          <mxGeometry x="-0.0804" width="60" relative="1" as="geometry">
            <mxPoint x="859.5" y="740" as="sourcePoint" />
            <mxPoint x="730.0999999999999" y="740" as="targetPoint" />
            <Array as="points">
              <mxPoint x="810" y="740" />
            </Array>
            <mxPoint as="offset" />
          </mxGeometry>
        </mxCell>
        <mxCell id="5m4vV9d6H3QpX--X7_wA-66" value="" style="shape=link;html=1;rounded=0;" parent="1" edge="1">
          <mxGeometry width="100" relative="1" as="geometry">
            <mxPoint x="250" y="620" as="sourcePoint" />
            <mxPoint x="1050" y="620.24" as="targetPoint" />
          </mxGeometry>
        </mxCell>
        <mxCell id="5m4vV9d6H3QpX--X7_wA-86" value="Spiel beitreten" style="edgeLabel;html=1;align=center;verticalAlign=middle;resizable=0;points=[];" parent="5m4vV9d6H3QpX--X7_wA-66" vertex="1" connectable="0">
          <mxGeometry x="0.0425" y="3" relative="1" as="geometry">
            <mxPoint as="offset" />
          </mxGeometry>
        </mxCell>
        <mxCell id="5m4vV9d6H3QpX--X7_wA-67" value="Benachrichtige über Spielstart" style="html=1;verticalAlign=bottom;startArrow=oval;startFill=1;endArrow=block;startSize=8;curved=0;rounded=0;" parent="1" edge="1">
          <mxGeometry width="60" relative="1" as="geometry">
            <mxPoint x="729.5" y="811" as="sourcePoint" />
            <mxPoint x="300.0999999999999" y="811" as="targetPoint" />
            <Array as="points">
              <mxPoint x="510" y="811" />
            </Array>
          </mxGeometry>
        </mxCell>
        <mxCell id="5m4vV9d6H3QpX--X7_wA-68" value="Benachrichtige über Spielstart" style="html=1;verticalAlign=bottom;startArrow=oval;startFill=1;endArrow=block;startSize=8;curved=0;rounded=0;" parent="1" edge="1">
          <mxGeometry width="60" relative="1" as="geometry">
            <mxPoint x="730.3" y="811" as="sourcePoint" />
            <mxPoint x="989.7" y="811" as="targetPoint" />
          </mxGeometry>
        </mxCell>
        <mxCell id="5m4vV9d6H3QpX--X7_wA-69" value="Übermittle Daten basierend auf Spiellogik" style="html=1;verticalAlign=bottom;startArrow=oval;startFill=1;endArrow=block;startSize=8;curved=0;rounded=0;" parent="1" edge="1">
          <mxGeometry width="60" relative="1" as="geometry">
            <mxPoint x="299.92857142857133" y="851" as="sourcePoint" />
            <mxPoint x="589.5" y="851" as="targetPoint" />
            <Array as="points">
              <mxPoint x="440" y="851" />
            </Array>
            <mxPoint as="offset" />
          </mxGeometry>
        </mxCell>
        <mxCell id="5m4vV9d6H3QpX--X7_wA-77" value="" style="endArrow=classic;html=1;rounded=0;movable=1;resizable=1;rotatable=1;deletable=1;editable=1;locked=0;connectable=1;edgeStyle=orthogonalEdgeStyle;" parent="1" edge="1">
          <mxGeometry width="50" height="50" relative="1" as="geometry">
            <mxPoint x="590.3657718120807" y="850" as="sourcePoint" />
            <mxPoint x="589.9285714285713" y="880.0285714285715" as="targetPoint" />
            <Array as="points">
              <mxPoint x="650" y="850" />
              <mxPoint x="650" y="880" />
            </Array>
          </mxGeometry>
        </mxCell>
        <mxCell id="5m4vV9d6H3QpX--X7_wA-79" value="Analysiere Daten" style="edgeLabel;html=1;align=center;verticalAlign=middle;resizable=0;points=[];" parent="5m4vV9d6H3QpX--X7_wA-77" vertex="1" connectable="0">
          <mxGeometry x="0.0066" relative="1" as="geometry">
            <mxPoint y="-1" as="offset" />
          </mxGeometry>
        </mxCell>
        <mxCell id="5m4vV9d6H3QpX--X7_wA-80" value="Löse Rundenende aus" style="html=1;verticalAlign=bottom;startArrow=oval;startFill=1;endArrow=block;startSize=8;curved=0;rounded=0;" parent="1" edge="1">
          <mxGeometry width="60" relative="1" as="geometry">
            <mxPoint x="589.9285714285713" y="910.43" as="sourcePoint" />
            <mxPoint x="730" y="910.43" as="targetPoint" />
          </mxGeometry>
        </mxCell>
        <mxCell id="5m4vV9d6H3QpX--X7_wA-81" value="Benachrichtige über Rundenende" style="html=1;verticalAlign=bottom;startArrow=oval;startFill=1;endArrow=block;startSize=8;curved=0;rounded=0;" parent="1" edge="1">
          <mxGeometry width="60" relative="1" as="geometry">
            <mxPoint x="730.3366666666667" y="941" as="sourcePoint" />
            <mxPoint x="989.67" y="941" as="targetPoint" />
          </mxGeometry>
        </mxCell>
        <mxCell id="5m4vV9d6H3QpX--X7_wA-82" value="Benachrichtige über Rundenende" style="html=1;verticalAlign=bottom;startArrow=oval;startFill=1;endArrow=block;startSize=8;curved=0;rounded=0;" parent="1" edge="1">
          <mxGeometry width="60" relative="1" as="geometry">
            <mxPoint x="729.33" y="941" as="sourcePoint" />
            <mxPoint x="299.9966666666666" y="941" as="targetPoint" />
          </mxGeometry>
        </mxCell>
        <mxCell id="5m4vV9d6H3QpX--X7_wA-84" value="" style="shape=link;html=1;rounded=0;" parent="1" edge="1">
          <mxGeometry width="100" relative="1" as="geometry">
            <mxPoint x="250" y="759.7099999999999" as="sourcePoint" />
            <mxPoint x="1050" y="759.9499999999999" as="targetPoint" />
          </mxGeometry>
        </mxCell>
        <mxCell id="5m4vV9d6H3QpX--X7_wA-87" value="Spiel spielen" style="edgeLabel;html=1;align=center;verticalAlign=middle;resizable=0;points=[];" parent="5m4vV9d6H3QpX--X7_wA-84" vertex="1" connectable="0">
          <mxGeometry x="-0.0089" y="-3" relative="1" as="geometry">
            <mxPoint x="18" y="-3" as="offset" />
          </mxGeometry>
        </mxCell>
        <mxCell id="RZ7BSYH1IXrUWbVcG9TL-1" value="" style="group" parent="1" vertex="1" connectable="0">
          <mxGeometry x="310" y="70" width="940" height="370" as="geometry" />
        </mxCell>
        <mxCell id="C-vyLk0tnHw3VtMMgP7b-2" value="Block" style="shape=table;startSize=30;container=1;collapsible=1;childLayout=tableLayout;fixedRows=1;rowLines=0;fontStyle=1;align=center;resizeLast=1;" parent="RZ7BSYH1IXrUWbVcG9TL-1" vertex="1">
          <mxGeometry x="340" y="20" width="250" height="210" as="geometry" />
        </mxCell>
        <mxCell id="C-vyLk0tnHw3VtMMgP7b-3" value="" style="shape=partialRectangle;collapsible=0;dropTarget=0;pointerEvents=0;fillColor=none;points=[[0,0.5],[1,0.5]];portConstraint=eastwest;top=0;left=0;right=0;bottom=1;" parent="C-vyLk0tnHw3VtMMgP7b-2" vertex="1">
          <mxGeometry y="30" width="250" height="30" as="geometry" />
        </mxCell>
        <mxCell id="C-vyLk0tnHw3VtMMgP7b-4" value="PK" style="shape=partialRectangle;overflow=hidden;connectable=0;fillColor=none;top=0;left=0;bottom=0;right=0;fontStyle=1;" parent="C-vyLk0tnHw3VtMMgP7b-3" vertex="1">
          <mxGeometry width="30" height="30" as="geometry">
            <mxRectangle width="30" height="30" as="alternateBounds" />
          </mxGeometry>
        </mxCell>
        <mxCell id="C-vyLk0tnHw3VtMMgP7b-5" value="block_id int NOT NULL " style="shape=partialRectangle;overflow=hidden;connectable=0;fillColor=none;top=0;left=0;bottom=0;right=0;align=left;spacingLeft=6;fontStyle=5;" parent="C-vyLk0tnHw3VtMMgP7b-3" vertex="1">
          <mxGeometry x="30" width="220" height="30" as="geometry">
            <mxRectangle width="220" height="30" as="alternateBounds" />
          </mxGeometry>
        </mxCell>
        <mxCell id="C-vyLk0tnHw3VtMMgP7b-6" value="" style="shape=partialRectangle;collapsible=0;dropTarget=0;pointerEvents=0;fillColor=none;points=[[0,0.5],[1,0.5]];portConstraint=eastwest;top=0;left=0;right=0;bottom=0;" parent="C-vyLk0tnHw3VtMMgP7b-2" vertex="1">
          <mxGeometry y="60" width="250" height="30" as="geometry" />
        </mxCell>
        <mxCell id="C-vyLk0tnHw3VtMMgP7b-7" value="FK1" style="shape=partialRectangle;overflow=hidden;connectable=0;fillColor=none;top=0;left=0;bottom=0;right=0;" parent="C-vyLk0tnHw3VtMMgP7b-6" vertex="1">
          <mxGeometry width="30" height="30" as="geometry">
            <mxRectangle width="30" height="30" as="alternateBounds" />
          </mxGeometry>
        </mxCell>
        <mxCell id="C-vyLk0tnHw3VtMMgP7b-8" value="sourounding_block_id int" style="shape=partialRectangle;overflow=hidden;connectable=0;fillColor=none;top=0;left=0;bottom=0;right=0;align=left;spacingLeft=6;" parent="C-vyLk0tnHw3VtMMgP7b-6" vertex="1">
          <mxGeometry x="30" width="220" height="30" as="geometry">
            <mxRectangle width="220" height="30" as="alternateBounds" />
          </mxGeometry>
        </mxCell>
        <mxCell id="5m4vV9d6H3QpX--X7_wA-12" style="shape=partialRectangle;collapsible=0;dropTarget=0;pointerEvents=0;fillColor=none;points=[[0,0.5],[1,0.5]];portConstraint=eastwest;top=0;left=0;right=0;bottom=0;" parent="C-vyLk0tnHw3VtMMgP7b-2" vertex="1">
          <mxGeometry y="90" width="250" height="30" as="geometry" />
        </mxCell>
        <mxCell id="5m4vV9d6H3QpX--X7_wA-13" style="shape=partialRectangle;overflow=hidden;connectable=0;fillColor=none;top=0;left=0;bottom=0;right=0;" parent="5m4vV9d6H3QpX--X7_wA-12" vertex="1">
          <mxGeometry width="30" height="30" as="geometry">
            <mxRectangle width="30" height="30" as="alternateBounds" />
          </mxGeometry>
        </mxCell>
        <mxCell id="5m4vV9d6H3QpX--X7_wA-14" value="position Position NOT NULL" style="shape=partialRectangle;overflow=hidden;connectable=0;fillColor=none;top=0;left=0;bottom=0;right=0;align=left;spacingLeft=6;" parent="5m4vV9d6H3QpX--X7_wA-12" vertex="1">
          <mxGeometry x="30" width="220" height="30" as="geometry">
            <mxRectangle width="220" height="30" as="alternateBounds" />
          </mxGeometry>
        </mxCell>
        <mxCell id="5m4vV9d6H3QpX--X7_wA-26" style="shape=partialRectangle;collapsible=0;dropTarget=0;pointerEvents=0;fillColor=none;points=[[0,0.5],[1,0.5]];portConstraint=eastwest;top=0;left=0;right=0;bottom=0;" parent="C-vyLk0tnHw3VtMMgP7b-2" vertex="1">
          <mxGeometry y="120" width="250" height="30" as="geometry" />
        </mxCell>
        <mxCell id="5m4vV9d6H3QpX--X7_wA-27" value="FK2" style="shape=partialRectangle;overflow=hidden;connectable=0;fillColor=none;top=0;left=0;bottom=0;right=0;" parent="5m4vV9d6H3QpX--X7_wA-26" vertex="1">
          <mxGeometry width="30" height="30" as="geometry">
            <mxRectangle width="30" height="30" as="alternateBounds" />
          </mxGeometry>
        </mxCell>
        <mxCell id="5m4vV9d6H3QpX--X7_wA-28" value="project_id int NOT NULL" style="shape=partialRectangle;overflow=hidden;connectable=0;fillColor=none;top=0;left=0;bottom=0;right=0;align=left;spacingLeft=6;" parent="5m4vV9d6H3QpX--X7_wA-26" vertex="1">
          <mxGeometry x="30" width="220" height="30" as="geometry">
            <mxRectangle width="220" height="30" as="alternateBounds" />
          </mxGeometry>
        </mxCell>
        <mxCell id="5m4vV9d6H3QpX--X7_wA-34" style="shape=partialRectangle;collapsible=0;dropTarget=0;pointerEvents=0;fillColor=none;points=[[0,0.5],[1,0.5]];portConstraint=eastwest;top=0;left=0;right=0;bottom=0;" parent="C-vyLk0tnHw3VtMMgP7b-2" vertex="1">
          <mxGeometry y="150" width="250" height="30" as="geometry" />
        </mxCell>
        <mxCell id="5m4vV9d6H3QpX--X7_wA-35" style="shape=partialRectangle;overflow=hidden;connectable=0;fillColor=none;top=0;left=0;bottom=0;right=0;" parent="5m4vV9d6H3QpX--X7_wA-34" vertex="1">
          <mxGeometry width="30" height="30" as="geometry">
            <mxRectangle width="30" height="30" as="alternateBounds" />
          </mxGeometry>
        </mxCell>
        <mxCell id="5m4vV9d6H3QpX--X7_wA-36" value="can_accept_children bool" style="shape=partialRectangle;overflow=hidden;connectable=0;fillColor=none;top=0;left=0;bottom=0;right=0;align=left;spacingLeft=6;" parent="5m4vV9d6H3QpX--X7_wA-34" vertex="1">
          <mxGeometry x="30" width="220" height="30" as="geometry">
            <mxRectangle width="220" height="30" as="alternateBounds" />
          </mxGeometry>
        </mxCell>
        <mxCell id="5m4vV9d6H3QpX--X7_wA-31" style="shape=partialRectangle;collapsible=0;dropTarget=0;pointerEvents=0;fillColor=none;points=[[0,0.5],[1,0.5]];portConstraint=eastwest;top=0;left=0;right=0;bottom=0;" parent="C-vyLk0tnHw3VtMMgP7b-2" vertex="1">
          <mxGeometry y="180" width="250" height="30" as="geometry" />
        </mxCell>
        <mxCell id="5m4vV9d6H3QpX--X7_wA-32" value="FK2" style="shape=partialRectangle;overflow=hidden;connectable=0;fillColor=none;top=0;left=0;bottom=0;right=0;" parent="5m4vV9d6H3QpX--X7_wA-31" vertex="1">
          <mxGeometry width="30" height="30" as="geometry">
            <mxRectangle width="30" height="30" as="alternateBounds" />
          </mxGeometry>
        </mxCell>
        <mxCell id="5m4vV9d6H3QpX--X7_wA-33" value="category_id NOT NULL" style="shape=partialRectangle;overflow=hidden;connectable=0;fillColor=none;top=0;left=0;bottom=0;right=0;align=left;spacingLeft=6;" parent="5m4vV9d6H3QpX--X7_wA-31" vertex="1">
          <mxGeometry x="30" width="220" height="30" as="geometry">
            <mxRectangle width="220" height="30" as="alternateBounds" />
          </mxGeometry>
        </mxCell>
        <mxCell id="5m4vV9d6H3QpX--X7_wA-47" style="edgeStyle=orthogonalEdgeStyle;rounded=1;orthogonalLoop=1;jettySize=auto;html=1;exitX=0.5;exitY=0;exitDx=0;exitDy=0;entryX=0;entryY=0.5;entryDx=0;entryDy=0;endArrow=ERzeroToMany;startArrow=ERone;endFill=1;startFill=0;" parent="C-vyLk0tnHw3VtMMgP7b-2" source="C-vyLk0tnHw3VtMMgP7b-2" target="C-vyLk0tnHw3VtMMgP7b-3" edge="1">
          <mxGeometry relative="1" as="geometry" />
        </mxCell>
        <mxCell id="C-vyLk0tnHw3VtMMgP7b-13" value="Project" style="shape=table;startSize=30;container=1;collapsible=1;childLayout=tableLayout;fixedRows=1;rowLines=0;fontStyle=1;align=center;resizeLast=1;" parent="RZ7BSYH1IXrUWbVcG9TL-1" vertex="1">
          <mxGeometry y="210" width="250" height="90" as="geometry" />
        </mxCell>
        <mxCell id="C-vyLk0tnHw3VtMMgP7b-14" value="" style="shape=partialRectangle;collapsible=0;dropTarget=0;pointerEvents=0;fillColor=none;points=[[0,0.5],[1,0.5]];portConstraint=eastwest;top=0;left=0;right=0;bottom=1;" parent="C-vyLk0tnHw3VtMMgP7b-13" vertex="1">
          <mxGeometry y="30" width="250" height="30" as="geometry" />
        </mxCell>
        <mxCell id="C-vyLk0tnHw3VtMMgP7b-15" value="PK" style="shape=partialRectangle;overflow=hidden;connectable=0;fillColor=none;top=0;left=0;bottom=0;right=0;fontStyle=1;" parent="C-vyLk0tnHw3VtMMgP7b-14" vertex="1">
          <mxGeometry width="30" height="30" as="geometry">
            <mxRectangle width="30" height="30" as="alternateBounds" />
          </mxGeometry>
        </mxCell>
        <mxCell id="C-vyLk0tnHw3VtMMgP7b-16" value="project_code int NOT NULL" style="shape=partialRectangle;overflow=hidden;connectable=0;fillColor=none;top=0;left=0;bottom=0;right=0;align=left;spacingLeft=6;fontStyle=5;" parent="C-vyLk0tnHw3VtMMgP7b-14" vertex="1">
          <mxGeometry x="30" width="220" height="30" as="geometry">
            <mxRectangle width="220" height="30" as="alternateBounds" />
          </mxGeometry>
        </mxCell>
        <mxCell id="C-vyLk0tnHw3VtMMgP7b-17" value="" style="shape=partialRectangle;collapsible=0;dropTarget=0;pointerEvents=0;fillColor=none;points=[[0,0.5],[1,0.5]];portConstraint=eastwest;top=0;left=0;right=0;bottom=0;" parent="C-vyLk0tnHw3VtMMgP7b-13" vertex="1">
          <mxGeometry y="60" width="250" height="30" as="geometry" />
        </mxCell>
        <mxCell id="C-vyLk0tnHw3VtMMgP7b-18" value="FK1" style="shape=partialRectangle;overflow=hidden;connectable=0;fillColor=none;top=0;left=0;bottom=0;right=0;" parent="C-vyLk0tnHw3VtMMgP7b-17" vertex="1">
          <mxGeometry width="30" height="30" as="geometry">
            <mxRectangle width="30" height="30" as="alternateBounds" />
          </mxGeometry>
        </mxCell>
        <mxCell id="C-vyLk0tnHw3VtMMgP7b-19" value="last_edited date AUTO NOW" style="shape=partialRectangle;overflow=hidden;connectable=0;fillColor=none;top=0;left=0;bottom=0;right=0;align=left;spacingLeft=6;" parent="C-vyLk0tnHw3VtMMgP7b-17" vertex="1">
          <mxGeometry x="30" width="220" height="30" as="geometry">
            <mxRectangle width="220" height="30" as="alternateBounds" />
          </mxGeometry>
        </mxCell>
        <mxCell id="m3s7j0JavGpKMfPqM1N_-19" value="BlockConnection" style="shape=table;startSize=30;container=1;collapsible=1;childLayout=tableLayout;fixedRows=1;rowLines=0;fontStyle=1;align=center;resizeLast=1;" parent="RZ7BSYH1IXrUWbVcG9TL-1" vertex="1">
          <mxGeometry x="690" y="140" width="250" height="150" as="geometry" />
        </mxCell>
        <mxCell id="m3s7j0JavGpKMfPqM1N_-20" value="" style="shape=partialRectangle;collapsible=0;dropTarget=0;pointerEvents=0;fillColor=none;points=[[0,0.5],[1,0.5]];portConstraint=eastwest;top=0;left=0;right=0;bottom=1;" parent="m3s7j0JavGpKMfPqM1N_-19" vertex="1">
          <mxGeometry y="30" width="250" height="30" as="geometry" />
        </mxCell>
        <mxCell id="m3s7j0JavGpKMfPqM1N_-21" value="PK" style="shape=partialRectangle;overflow=hidden;connectable=0;fillColor=none;top=0;left=0;bottom=0;right=0;fontStyle=1;" parent="m3s7j0JavGpKMfPqM1N_-20" vertex="1">
          <mxGeometry width="30" height="30" as="geometry">
            <mxRectangle width="30" height="30" as="alternateBounds" />
          </mxGeometry>
        </mxCell>
        <mxCell id="m3s7j0JavGpKMfPqM1N_-22" value="block_start_id int NOT NULL " style="shape=partialRectangle;overflow=hidden;connectable=0;fillColor=none;top=0;left=0;bottom=0;right=0;align=left;spacingLeft=6;fontStyle=5;" parent="m3s7j0JavGpKMfPqM1N_-20" vertex="1">
          <mxGeometry x="30" width="220" height="30" as="geometry">
            <mxRectangle width="220" height="30" as="alternateBounds" />
          </mxGeometry>
        </mxCell>
        <mxCell id="m3s7j0JavGpKMfPqM1N_-36" value="" style="shape=partialRectangle;collapsible=0;dropTarget=0;pointerEvents=0;fillColor=none;points=[[0,0.5],[1,0.5]];portConstraint=eastwest;top=0;left=0;right=0;bottom=0;" parent="m3s7j0JavGpKMfPqM1N_-19" vertex="1">
          <mxGeometry y="60" width="250" height="30" as="geometry" />
        </mxCell>
        <mxCell id="m3s7j0JavGpKMfPqM1N_-37" value="PK" style="shape=partialRectangle;overflow=hidden;connectable=0;fillColor=none;top=0;left=0;bottom=0;right=0;" parent="m3s7j0JavGpKMfPqM1N_-36" vertex="1">
          <mxGeometry width="30" height="30" as="geometry">
            <mxRectangle width="30" height="30" as="alternateBounds" />
          </mxGeometry>
        </mxCell>
        <mxCell id="m3s7j0JavGpKMfPqM1N_-38" value="block_end_id int NOT NULL" style="shape=partialRectangle;overflow=hidden;connectable=0;fillColor=none;top=0;left=0;bottom=0;right=0;align=left;spacingLeft=6;" parent="m3s7j0JavGpKMfPqM1N_-36" vertex="1">
          <mxGeometry x="30" width="220" height="30" as="geometry">
            <mxRectangle width="220" height="30" as="alternateBounds" />
          </mxGeometry>
        </mxCell>
        <mxCell id="m3s7j0JavGpKMfPqM1N_-29" style="shape=partialRectangle;collapsible=0;dropTarget=0;pointerEvents=0;fillColor=none;points=[[0,0.5],[1,0.5]];portConstraint=eastwest;top=0;left=0;right=0;bottom=0;" parent="m3s7j0JavGpKMfPqM1N_-19" vertex="1">
          <mxGeometry y="90" width="250" height="30" as="geometry" />
        </mxCell>
        <mxCell id="m3s7j0JavGpKMfPqM1N_-30" style="shape=partialRectangle;overflow=hidden;connectable=0;fillColor=none;top=0;left=0;bottom=0;right=0;" parent="m3s7j0JavGpKMfPqM1N_-29" vertex="1">
          <mxGeometry width="30" height="30" as="geometry">
            <mxRectangle width="30" height="30" as="alternateBounds" />
          </mxGeometry>
        </mxCell>
        <mxCell id="m3s7j0JavGpKMfPqM1N_-31" value="block_start_output_id int NOT NULL" style="shape=partialRectangle;overflow=hidden;connectable=0;fillColor=none;top=0;left=0;bottom=0;right=0;align=left;spacingLeft=6;" parent="m3s7j0JavGpKMfPqM1N_-29" vertex="1">
          <mxGeometry x="30" width="220" height="30" as="geometry">
            <mxRectangle width="220" height="30" as="alternateBounds" />
          </mxGeometry>
        </mxCell>
        <mxCell id="m3s7j0JavGpKMfPqM1N_-26" style="shape=partialRectangle;collapsible=0;dropTarget=0;pointerEvents=0;fillColor=none;points=[[0,0.5],[1,0.5]];portConstraint=eastwest;top=0;left=0;right=0;bottom=0;" parent="m3s7j0JavGpKMfPqM1N_-19" vertex="1">
          <mxGeometry y="120" width="250" height="30" as="geometry" />
        </mxCell>
        <mxCell id="m3s7j0JavGpKMfPqM1N_-27" style="shape=partialRectangle;overflow=hidden;connectable=0;fillColor=none;top=0;left=0;bottom=0;right=0;" parent="m3s7j0JavGpKMfPqM1N_-26" vertex="1">
          <mxGeometry width="30" height="30" as="geometry">
            <mxRectangle width="30" height="30" as="alternateBounds" />
          </mxGeometry>
        </mxCell>
        <mxCell id="m3s7j0JavGpKMfPqM1N_-28" value="block_end_input_id int NOT NULL" style="shape=partialRectangle;overflow=hidden;connectable=0;fillColor=none;top=0;left=0;bottom=0;right=0;align=left;spacingLeft=6;" parent="m3s7j0JavGpKMfPqM1N_-26" vertex="1">
          <mxGeometry x="30" width="220" height="30" as="geometry">
            <mxRectangle width="220" height="30" as="alternateBounds" />
          </mxGeometry>
        </mxCell>
        <mxCell id="m3s7j0JavGpKMfPqM1N_-34" style="edgeStyle=orthogonalEdgeStyle;rounded=1;orthogonalLoop=1;jettySize=auto;html=1;exitX=1;exitY=0.5;exitDx=0;exitDy=0;endArrow=ERzeroToMany;startArrow=ERone;endFill=1;startFill=0;" parent="RZ7BSYH1IXrUWbVcG9TL-1" source="C-vyLk0tnHw3VtMMgP7b-3" target="m3s7j0JavGpKMfPqM1N_-36" edge="1">
          <mxGeometry relative="1" as="geometry" />
        </mxCell>
        <mxCell id="m3s7j0JavGpKMfPqM1N_-35" style="edgeStyle=orthogonalEdgeStyle;rounded=1;orthogonalLoop=1;jettySize=auto;html=1;exitX=1;exitY=0.5;exitDx=0;exitDy=0;endArrow=ERzeroToMany;startArrow=ERone;endFill=1;startFill=0;" parent="RZ7BSYH1IXrUWbVcG9TL-1" source="C-vyLk0tnHw3VtMMgP7b-3" target="m3s7j0JavGpKMfPqM1N_-20" edge="1">
          <mxGeometry relative="1" as="geometry" />
        </mxCell>
        <mxCell id="5m4vV9d6H3QpX--X7_wA-10" value="&lt;p style=&quot;margin:0px;margin-top:4px;text-align:center;&quot;&gt;&lt;b&gt;Position&lt;/b&gt;&lt;/p&gt;&lt;hr size=&quot;1&quot;&gt;&lt;p style=&quot;margin:0px;margin-left:4px;&quot;&gt;+ x: int&lt;/p&gt;&lt;p style=&quot;margin:0px;margin-left:4px;&quot;&gt;+ y: int&lt;/p&gt;" style="verticalAlign=top;align=left;overflow=fill;fontSize=12;fontFamily=Helvetica;html=1;whiteSpace=wrap;" parent="RZ7BSYH1IXrUWbVcG9TL-1" vertex="1">
          <mxGeometry x="710" width="160" height="70" as="geometry" />
        </mxCell>
        <mxCell id="5m4vV9d6H3QpX--X7_wA-29" style="edgeStyle=orthogonalEdgeStyle;rounded=1;orthogonalLoop=1;jettySize=auto;html=1;entryX=1;entryY=0.5;entryDx=0;entryDy=0;endArrow=ERzeroToMany;startArrow=ERone;endFill=1;startFill=0;" parent="RZ7BSYH1IXrUWbVcG9TL-1" source="5m4vV9d6H3QpX--X7_wA-26" target="C-vyLk0tnHw3VtMMgP7b-14" edge="1">
          <mxGeometry relative="1" as="geometry" />
        </mxCell>
        <mxCell id="5m4vV9d6H3QpX--X7_wA-30" style="edgeStyle=orthogonalEdgeStyle;rounded=0;orthogonalLoop=1;jettySize=auto;html=1;shape=link;" parent="RZ7BSYH1IXrUWbVcG9TL-1" source="5m4vV9d6H3QpX--X7_wA-12" target="5m4vV9d6H3QpX--X7_wA-10" edge="1">
          <mxGeometry relative="1" as="geometry" />
        </mxCell>
        <mxCell id="5m4vV9d6H3QpX--X7_wA-37" value="Category" style="shape=table;startSize=30;container=1;collapsible=1;childLayout=tableLayout;fixedRows=1;rowLines=0;fontStyle=1;align=center;resizeLast=1;" parent="RZ7BSYH1IXrUWbVcG9TL-1" vertex="1">
          <mxGeometry x="340" y="280" width="250" height="90" as="geometry" />
        </mxCell>
        <mxCell id="5m4vV9d6H3QpX--X7_wA-38" value="" style="shape=partialRectangle;collapsible=0;dropTarget=0;pointerEvents=0;fillColor=none;points=[[0,0.5],[1,0.5]];portConstraint=eastwest;top=0;left=0;right=0;bottom=1;" parent="5m4vV9d6H3QpX--X7_wA-37" vertex="1">
          <mxGeometry y="30" width="250" height="30" as="geometry" />
        </mxCell>
        <mxCell id="5m4vV9d6H3QpX--X7_wA-39" value="PK" style="shape=partialRectangle;overflow=hidden;connectable=0;fillColor=none;top=0;left=0;bottom=0;right=0;fontStyle=1;" parent="5m4vV9d6H3QpX--X7_wA-38" vertex="1">
          <mxGeometry width="30" height="30" as="geometry">
            <mxRectangle width="30" height="30" as="alternateBounds" />
          </mxGeometry>
        </mxCell>
        <mxCell id="5m4vV9d6H3QpX--X7_wA-40" value="category_id int NOT NULL" style="shape=partialRectangle;overflow=hidden;connectable=0;fillColor=none;top=0;left=0;bottom=0;right=0;align=left;spacingLeft=6;fontStyle=5;" parent="5m4vV9d6H3QpX--X7_wA-38" vertex="1">
          <mxGeometry x="30" width="220" height="30" as="geometry">
            <mxRectangle width="220" height="30" as="alternateBounds" />
          </mxGeometry>
        </mxCell>
        <mxCell id="5m4vV9d6H3QpX--X7_wA-41" value="" style="shape=partialRectangle;collapsible=0;dropTarget=0;pointerEvents=0;fillColor=none;points=[[0,0.5],[1,0.5]];portConstraint=eastwest;top=0;left=0;right=0;bottom=0;" parent="5m4vV9d6H3QpX--X7_wA-37" vertex="1">
          <mxGeometry y="60" width="250" height="30" as="geometry" />
        </mxCell>
        <mxCell id="5m4vV9d6H3QpX--X7_wA-42" value="" style="shape=partialRectangle;overflow=hidden;connectable=0;fillColor=none;top=0;left=0;bottom=0;right=0;" parent="5m4vV9d6H3QpX--X7_wA-41" vertex="1">
          <mxGeometry width="30" height="30" as="geometry">
            <mxRectangle width="30" height="30" as="alternateBounds" />
          </mxGeometry>
        </mxCell>
        <mxCell id="5m4vV9d6H3QpX--X7_wA-43" value="category_label str NOT NULL" style="shape=partialRectangle;overflow=hidden;connectable=0;fillColor=none;top=0;left=0;bottom=0;right=0;align=left;spacingLeft=6;" parent="5m4vV9d6H3QpX--X7_wA-41" vertex="1">
          <mxGeometry x="30" width="220" height="30" as="geometry">
            <mxRectangle width="220" height="30" as="alternateBounds" />
          </mxGeometry>
        </mxCell>
        <mxCell id="5m4vV9d6H3QpX--X7_wA-46" style="edgeStyle=orthogonalEdgeStyle;rounded=1;orthogonalLoop=1;jettySize=auto;html=1;exitX=1;exitY=0.5;exitDx=0;exitDy=0;entryX=1.01;entryY=0.625;entryDx=0;entryDy=0;entryPerimeter=0;endArrow=ERzeroToMany;startArrow=ERone;endFill=1;startFill=0;" parent="RZ7BSYH1IXrUWbVcG9TL-1" source="5m4vV9d6H3QpX--X7_wA-31" target="5m4vV9d6H3QpX--X7_wA-38" edge="1">
          <mxGeometry relative="1" as="geometry" />
        </mxCell>
        <object label="" id="SifQu5bordt7_p5kKu9e-1">
          <mxCell style="shape=umlLifeline;perimeter=lifelinePerimeter;whiteSpace=wrap;html=1;container=1;dropTarget=0;collapsible=0;recursiveResize=0;outlineConnect=0;portConstraint=eastwest;newEdgeStyle={&quot;curved&quot;:0,&quot;rounded&quot;:0};participant=umlActor;size=40;" parent="1" vertex="1">
            <mxGeometry x="280" y="1100" width="20" height="400" as="geometry" />
          </mxCell>
        </object>
        <mxCell id="SifQu5bordt7_p5kKu9e-2" value="Server" style="shape=umlLifeline;perimeter=lifelinePerimeter;whiteSpace=wrap;html=1;container=1;dropTarget=0;collapsible=0;recursiveResize=0;outlineConnect=0;portConstraint=eastwest;newEdgeStyle={&quot;curved&quot;:0,&quot;rounded&quot;:0};" parent="1" vertex="1">
          <mxGeometry x="530" y="1090" width="100" height="410" as="geometry" />
        </mxCell>
        <mxCell id="SifQu5bordt7_p5kKu9e-3" value="Spieler" style="text;strokeColor=none;align=center;fillColor=none;html=1;verticalAlign=middle;whiteSpace=wrap;rounded=0;" parent="1" vertex="1">
          <mxGeometry x="260" y="1070" width="60" height="30" as="geometry" />
        </mxCell>
        <mxCell id="SifQu5bordt7_p5kKu9e-4" value="Spiel mit Code beitreten" style="html=1;verticalAlign=bottom;startArrow=oval;startFill=1;endArrow=block;startSize=8;curved=0;rounded=0;" parent="1" edge="1">
          <mxGeometry width="60" relative="1" as="geometry">
            <mxPoint x="290.2222222222223" y="1196" as="sourcePoint" />
            <mxPoint x="579.5" y="1196" as="targetPoint" />
          </mxGeometry>
        </mxCell>
        <mxCell id="SifQu5bordt7_p5kKu9e-5" value="Message Broker" style="shape=umlLifeline;perimeter=lifelinePerimeter;whiteSpace=wrap;html=1;container=1;dropTarget=0;collapsible=0;recursiveResize=0;outlineConnect=0;portConstraint=eastwest;newEdgeStyle={&quot;curved&quot;:0,&quot;rounded&quot;:0};" parent="1" vertex="1">
          <mxGeometry x="670" y="1090" width="100" height="410" as="geometry" />
        </mxCell>
        <mxCell id="SifQu5bordt7_p5kKu9e-6" value="Füge Spieler zu allg.&lt;br&gt;ProjektThema hinzu" style="html=1;verticalAlign=bottom;startArrow=oval;startFill=1;endArrow=block;startSize=8;curved=0;rounded=0;" parent="1" edge="1">
          <mxGeometry width="60" relative="1" as="geometry">
            <mxPoint x="579.9285714285713" y="1216" as="sourcePoint" />
            <mxPoint x="719.5" y="1216" as="targetPoint" />
            <Array as="points">
              <mxPoint x="650" y="1216" />
            </Array>
          </mxGeometry>
        </mxCell>
        <mxCell id="SifQu5bordt7_p5kKu9e-7" value="Admin" style="shape=umlLifeline;perimeter=lifelinePerimeter;whiteSpace=wrap;html=1;container=1;dropTarget=0;collapsible=0;recursiveResize=0;outlineConnect=0;portConstraint=eastwest;newEdgeStyle={&quot;curved&quot;:0,&quot;rounded&quot;:0};" parent="1" vertex="1">
          <mxGeometry x="800" y="1090" width="100" height="410" as="geometry" />
        </mxCell>
        <mxCell id="SifQu5bordt7_p5kKu9e-8" value="Andere Spieler" style="shape=umlLifeline;perimeter=lifelinePerimeter;whiteSpace=wrap;html=1;container=1;dropTarget=0;collapsible=0;recursiveResize=0;outlineConnect=0;portConstraint=eastwest;newEdgeStyle={&quot;curved&quot;:0,&quot;rounded&quot;:0};" parent="1" vertex="1">
          <mxGeometry x="930" y="1090" width="100" height="410" as="geometry" />
        </mxCell>
        <mxCell id="SifQu5bordt7_p5kKu9e-9" value="Benachichtige&lt;br&gt;Admins" style="html=1;verticalAlign=bottom;startArrow=oval;startFill=1;endArrow=block;startSize=8;curved=0;rounded=0;" parent="1" edge="1">
          <mxGeometry width="60" relative="1" as="geometry">
            <mxPoint x="719.9285714285713" y="1246" as="sourcePoint" />
            <mxPoint x="849.5" y="1246" as="targetPoint" />
            <Array as="points">
              <mxPoint x="720" y="1246" />
            </Array>
          </mxGeometry>
        </mxCell>
        <mxCell id="SifQu5bordt7_p5kKu9e-10" value="Starte Spiel" style="html=1;verticalAlign=bottom;startArrow=oval;startFill=1;endArrow=block;startSize=8;curved=0;rounded=0;" parent="1" target="SifQu5bordt7_p5kKu9e-2" edge="1">
          <mxGeometry x="-0.0804" width="60" relative="1" as="geometry">
            <mxPoint x="849.5" y="1280" as="sourcePoint" />
            <mxPoint x="720.0999999999999" y="1280" as="targetPoint" />
            <Array as="points">
              <mxPoint x="800" y="1280" />
            </Array>
            <mxPoint as="offset" />
          </mxGeometry>
        </mxCell>
        <mxCell id="SifQu5bordt7_p5kKu9e-11" value="" style="shape=link;html=1;rounded=0;" parent="1" edge="1">
          <mxGeometry width="100" relative="1" as="geometry">
            <mxPoint x="240" y="1160" as="sourcePoint" />
            <mxPoint x="1040" y="1160.24" as="targetPoint" />
          </mxGeometry>
        </mxCell>
        <mxCell id="SifQu5bordt7_p5kKu9e-12" value="Spiel beitreten" style="edgeLabel;html=1;align=center;verticalAlign=middle;resizable=0;points=[];" parent="SifQu5bordt7_p5kKu9e-11" vertex="1" connectable="0">
          <mxGeometry x="0.0425" y="3" relative="1" as="geometry">
            <mxPoint as="offset" />
          </mxGeometry>
        </mxCell>
        <mxCell id="SifQu5bordt7_p5kKu9e-13" value="Benachrichtige über Spielstart" style="html=1;verticalAlign=bottom;startArrow=oval;startFill=1;endArrow=block;startSize=8;curved=0;rounded=0;" parent="1" edge="1">
          <mxGeometry width="60" relative="1" as="geometry">
            <mxPoint x="719.5" y="1351" as="sourcePoint" />
            <mxPoint x="290.0999999999999" y="1351" as="targetPoint" />
            <Array as="points">
              <mxPoint x="500" y="1351" />
            </Array>
          </mxGeometry>
        </mxCell>
        <mxCell id="SifQu5bordt7_p5kKu9e-14" value="Benachrichtige über Spielstart" style="html=1;verticalAlign=bottom;startArrow=oval;startFill=1;endArrow=block;startSize=8;curved=0;rounded=0;" parent="1" edge="1">
          <mxGeometry width="60" relative="1" as="geometry">
            <mxPoint x="720.3" y="1351" as="sourcePoint" />
            <mxPoint x="979.7" y="1351" as="targetPoint" />
          </mxGeometry>
        </mxCell>
        <mxCell id="SifQu5bordt7_p5kKu9e-15" value="Übermittle Daten basierend auf Spiellogik" style="html=1;verticalAlign=bottom;startArrow=oval;startFill=1;endArrow=block;startSize=8;curved=0;rounded=0;" parent="1" edge="1">
          <mxGeometry width="60" relative="1" as="geometry">
            <mxPoint x="289.92857142857133" y="1391" as="sourcePoint" />
            <mxPoint x="579.5" y="1391" as="targetPoint" />
            <Array as="points">
              <mxPoint x="430" y="1391" />
            </Array>
            <mxPoint as="offset" />
          </mxGeometry>
        </mxCell>
        <mxCell id="SifQu5bordt7_p5kKu9e-16" value="" style="endArrow=classic;html=1;rounded=0;movable=1;resizable=1;rotatable=1;deletable=1;editable=1;locked=0;connectable=1;edgeStyle=orthogonalEdgeStyle;" parent="1" edge="1">
          <mxGeometry width="50" height="50" relative="1" as="geometry">
            <mxPoint x="580.3657718120807" y="1390" as="sourcePoint" />
            <mxPoint x="579.9285714285713" y="1420.0285714285715" as="targetPoint" />
            <Array as="points">
              <mxPoint x="640" y="1390" />
              <mxPoint x="640" y="1420" />
            </Array>
          </mxGeometry>
        </mxCell>
        <mxCell id="SifQu5bordt7_p5kKu9e-17" value="Analysiere Daten" style="edgeLabel;html=1;align=center;verticalAlign=middle;resizable=0;points=[];" parent="SifQu5bordt7_p5kKu9e-16" vertex="1" connectable="0">
          <mxGeometry x="0.0066" relative="1" as="geometry">
            <mxPoint y="-1" as="offset" />
          </mxGeometry>
        </mxCell>
        <mxCell id="SifQu5bordt7_p5kKu9e-18" value="Löse Rundenende aus" style="html=1;verticalAlign=bottom;startArrow=oval;startFill=1;endArrow=block;startSize=8;curved=0;rounded=0;" parent="1" edge="1">
          <mxGeometry width="60" relative="1" as="geometry">
            <mxPoint x="579.9285714285713" y="1450.4299999999998" as="sourcePoint" />
            <mxPoint x="720" y="1450.4299999999998" as="targetPoint" />
          </mxGeometry>
        </mxCell>
        <mxCell id="SifQu5bordt7_p5kKu9e-19" value="Benachrichtige über Rundenende" style="html=1;verticalAlign=bottom;startArrow=oval;startFill=1;endArrow=block;startSize=8;curved=0;rounded=0;" parent="1" edge="1">
          <mxGeometry width="60" relative="1" as="geometry">
            <mxPoint x="720.3366666666667" y="1481" as="sourcePoint" />
            <mxPoint x="979.67" y="1481" as="targetPoint" />
          </mxGeometry>
        </mxCell>
        <mxCell id="SifQu5bordt7_p5kKu9e-20" value="Benachrichtige über Rundenende" style="html=1;verticalAlign=bottom;startArrow=oval;startFill=1;endArrow=block;startSize=8;curved=0;rounded=0;" parent="1" edge="1">
          <mxGeometry width="60" relative="1" as="geometry">
            <mxPoint x="719.33" y="1481" as="sourcePoint" />
            <mxPoint x="289.9966666666666" y="1481" as="targetPoint" />
          </mxGeometry>
        </mxCell>
        <mxCell id="SifQu5bordt7_p5kKu9e-21" value="" style="shape=link;html=1;rounded=0;" parent="1" edge="1">
          <mxGeometry width="100" relative="1" as="geometry">
            <mxPoint x="240" y="1299.71" as="sourcePoint" />
            <mxPoint x="1040" y="1299.9499999999998" as="targetPoint" />
          </mxGeometry>
        </mxCell>
        <mxCell id="SifQu5bordt7_p5kKu9e-22" value="Spiel spielen" style="edgeLabel;html=1;align=center;verticalAlign=middle;resizable=0;points=[];" parent="SifQu5bordt7_p5kKu9e-21" vertex="1" connectable="0">
          <mxGeometry x="-0.0089" y="-3" relative="1" as="geometry">
            <mxPoint x="18" y="-3" as="offset" />
          </mxGeometry>
        </mxCell>
        <mxCell id="SifQu5bordt7_p5kKu9e-23" value="GameDataTransferObjects" style="shape=umlFrame;whiteSpace=wrap;html=1;pointerEvents=0;width=180;height=30;movable=1;resizable=1;rotatable=1;deletable=1;editable=1;locked=0;connectable=1;" parent="1" vertex="1">
          <mxGeometry x="350" y="1570" width="960" height="720" as="geometry" />
        </mxCell>
        <mxCell id="SifQu5bordt7_p5kKu9e-24" value="PlayerDTO" style="swimlane;fontStyle=0;childLayout=stackLayout;horizontal=1;startSize=26;fillColor=none;horizontalStack=0;resizeParent=1;resizeParentMax=0;resizeLast=0;collapsible=1;marginBottom=0;whiteSpace=wrap;html=1;" parent="1" vertex="1">
          <mxGeometry x="380" y="1640" width="140" height="78" as="geometry" />
        </mxCell>
        <mxCell id="SifQu5bordt7_p5kKu9e-25" value="+ uid: string" style="text;strokeColor=none;fillColor=none;align=left;verticalAlign=top;spacingLeft=4;spacingRight=4;overflow=hidden;rotatable=0;points=[[0,0.5],[1,0.5]];portConstraint=eastwest;whiteSpace=wrap;html=1;" parent="SifQu5bordt7_p5kKu9e-24" vertex="1">
          <mxGeometry y="26" width="140" height="26" as="geometry" />
        </mxCell>
        <mxCell id="SifQu5bordt7_p5kKu9e-27" value="+ name: string" style="text;strokeColor=none;fillColor=none;align=left;verticalAlign=top;spacingLeft=4;spacingRight=4;overflow=hidden;rotatable=0;points=[[0,0.5],[1,0.5]];portConstraint=eastwest;whiteSpace=wrap;html=1;" parent="SifQu5bordt7_p5kKu9e-24" vertex="1">
          <mxGeometry y="52" width="140" height="26" as="geometry" />
        </mxCell>
        <mxCell id="SifQu5bordt7_p5kKu9e-28" value="GameInfoDTO" style="swimlane;fontStyle=0;childLayout=stackLayout;horizontal=1;startSize=26;fillColor=none;horizontalStack=0;resizeParent=1;resizeParentMax=0;resizeLast=0;collapsible=1;marginBottom=0;whiteSpace=wrap;html=1;" parent="1" vertex="1">
          <mxGeometry x="570" y="1640" width="140" height="104" as="geometry" />
        </mxCell>
        <mxCell id="SifQu5bordt7_p5kKu9e-30" value="+ join_code: string" style="text;strokeColor=none;fillColor=none;align=left;verticalAlign=top;spacingLeft=4;spacingRight=4;overflow=hidden;rotatable=0;points=[[0,0.5],[1,0.5]];portConstraint=eastwest;whiteSpace=wrap;html=1;" parent="SifQu5bordt7_p5kKu9e-28" vertex="1">
          <mxGeometry y="26" width="140" height="26" as="geometry" />
        </mxCell>
        <mxCell id="SifQu5bordt7_p5kKu9e-31" value="+ ongoing: bool" style="text;strokeColor=none;fillColor=none;align=left;verticalAlign=top;spacingLeft=4;spacingRight=4;overflow=hidden;rotatable=0;points=[[0,0.5],[1,0.5]];portConstraint=eastwest;whiteSpace=wrap;html=1;" parent="SifQu5bordt7_p5kKu9e-28" vertex="1">
          <mxGeometry y="52" width="140" height="26" as="geometry" />
        </mxCell>
        <mxCell id="SifQu5bordt7_p5kKu9e-32" value="+ start_time: DateTime" style="text;strokeColor=none;fillColor=none;align=left;verticalAlign=top;spacingLeft=4;spacingRight=4;overflow=hidden;rotatable=0;points=[[0,0.5],[1,0.5]];portConstraint=eastwest;whiteSpace=wrap;html=1;" parent="SifQu5bordt7_p5kKu9e-28" vertex="1">
          <mxGeometry y="78" width="140" height="26" as="geometry" />
        </mxCell>
        <mxCell id="SifQu5bordt7_p5kKu9e-33" value="LayoutInfoDTO" style="swimlane;fontStyle=0;childLayout=stackLayout;horizontal=1;startSize=26;fillColor=none;horizontalStack=0;resizeParent=1;resizeParentMax=0;resizeLast=0;collapsible=1;marginBottom=0;whiteSpace=wrap;html=1;" parent="1" vertex="1">
          <mxGeometry x="780" y="1640" width="200" height="52" as="geometry" />
        </mxCell>
        <mxCell id="SifQu5bordt7_p5kKu9e-35" value="+ items: LayoutItemDTO[]" style="text;strokeColor=none;fillColor=none;align=left;verticalAlign=top;spacingLeft=4;spacingRight=4;overflow=hidden;rotatable=0;points=[[0,0.5],[1,0.5]];portConstraint=eastwest;whiteSpace=wrap;html=1;" parent="SifQu5bordt7_p5kKu9e-33" vertex="1">
          <mxGeometry y="26" width="200" height="26" as="geometry" />
        </mxCell>
        <mxCell id="SifQu5bordt7_p5kKu9e-38" value="LayoutItemDTO" style="swimlane;fontStyle=0;childLayout=stackLayout;horizontal=1;startSize=26;fillColor=none;horizontalStack=0;resizeParent=1;resizeParentMax=0;resizeLast=0;collapsible=1;marginBottom=0;whiteSpace=wrap;html=1;" parent="1" vertex="1">
          <mxGeometry x="1040" y="1640" width="200" height="130" as="geometry" />
        </mxCell>
        <mxCell id="SifQu5bordt7_p5kKu9e-43" value="+ update_id: int" style="text;strokeColor=none;fillColor=none;align=left;verticalAlign=top;spacingLeft=4;spacingRight=4;overflow=hidden;rotatable=0;points=[[0,0.5],[1,0.5]];portConstraint=eastwest;whiteSpace=wrap;html=1;" parent="SifQu5bordt7_p5kKu9e-38" vertex="1">
          <mxGeometry y="26" width="200" height="26" as="geometry" />
        </mxCell>
        <mxCell id="SifQu5bordt7_p5kKu9e-40" value="+ type: string" style="text;strokeColor=none;fillColor=none;align=left;verticalAlign=top;spacingLeft=4;spacingRight=4;overflow=hidden;rotatable=0;points=[[0,0.5],[1,0.5]];portConstraint=eastwest;whiteSpace=wrap;html=1;" parent="SifQu5bordt7_p5kKu9e-38" vertex="1">
          <mxGeometry y="52" width="200" height="26" as="geometry" />
        </mxCell>
        <mxCell id="SifQu5bordt7_p5kKu9e-41" value="+ order: int" style="text;strokeColor=none;fillColor=none;align=left;verticalAlign=top;spacingLeft=4;spacingRight=4;overflow=hidden;rotatable=0;points=[[0,0.5],[1,0.5]];portConstraint=eastwest;whiteSpace=wrap;html=1;" parent="SifQu5bordt7_p5kKu9e-38" vertex="1">
          <mxGeometry y="78" width="200" height="26" as="geometry" />
        </mxCell>
        <mxCell id="SifQu5bordt7_p5kKu9e-42" value="+ data: any" style="text;strokeColor=none;fillColor=none;align=left;verticalAlign=top;spacingLeft=4;spacingRight=4;overflow=hidden;rotatable=0;points=[[0,0.5],[1,0.5]];portConstraint=eastwest;whiteSpace=wrap;html=1;" parent="SifQu5bordt7_p5kKu9e-38" vertex="1">
          <mxGeometry y="104" width="200" height="26" as="geometry" />
        </mxCell>
        <mxCell id="SifQu5bordt7_p5kKu9e-44" value="SensorInfoDTO" style="swimlane;fontStyle=0;childLayout=stackLayout;horizontal=1;startSize=26;fillColor=none;horizontalStack=0;resizeParent=1;resizeParentMax=0;resizeLast=0;collapsible=1;marginBottom=0;whiteSpace=wrap;html=1;" parent="1" vertex="1">
          <mxGeometry x="1040" y="1800" width="140" height="104" as="geometry" />
        </mxCell>
        <mxCell id="SifQu5bordt7_p5kKu9e-45" value="+ player_uid: string" style="text;strokeColor=none;fillColor=none;align=left;verticalAlign=top;spacingLeft=4;spacingRight=4;overflow=hidden;rotatable=0;points=[[0,0.5],[1,0.5]];portConstraint=eastwest;whiteSpace=wrap;html=1;" parent="SifQu5bordt7_p5kKu9e-44" vertex="1">
          <mxGeometry y="26" width="140" height="26" as="geometry" />
        </mxCell>
        <mxCell id="SifQu5bordt7_p5kKu9e-46" value="+ sensor_block_id: int" style="text;strokeColor=none;fillColor=none;align=left;verticalAlign=top;spacingLeft=4;spacingRight=4;overflow=hidden;rotatable=0;points=[[0,0.5],[1,0.5]];portConstraint=eastwest;whiteSpace=wrap;html=1;" parent="SifQu5bordt7_p5kKu9e-44" vertex="1">
          <mxGeometry y="52" width="140" height="26" as="geometry" />
        </mxCell>
        <mxCell id="SifQu5bordt7_p5kKu9e-47" value="+ data: any" style="text;strokeColor=none;fillColor=none;align=left;verticalAlign=top;spacingLeft=4;spacingRight=4;overflow=hidden;rotatable=0;points=[[0,0.5],[1,0.5]];portConstraint=eastwest;whiteSpace=wrap;html=1;" parent="SifQu5bordt7_p5kKu9e-44" vertex="1">
          <mxGeometry y="78" width="140" height="26" as="geometry" />
        </mxCell>
        <mxCell id="eH06D5HPxaI-sK5qK4YA-1" value="LowCodePlatformModule" style="shape=umlFrame;whiteSpace=wrap;html=1;pointerEvents=0;width=180;height=30;movable=1;resizable=1;rotatable=1;deletable=1;editable=1;locked=0;connectable=1;" vertex="1" parent="1">
          <mxGeometry x="1490" y="1560" width="960" height="720" as="geometry" />
        </mxCell>
        <mxCell id="eH06D5HPxaI-sK5qK4YA-3" value="Models" style="shape=umlFrame;whiteSpace=wrap;html=1;pointerEvents=0;" vertex="1" parent="1">
          <mxGeometry x="1510" y="1620" width="900" height="500" as="geometry" />
        </mxCell>
        <mxCell id="eH06D5HPxaI-sK5qK4YA-4" value="&lt;div&gt;&lt;i&gt;&amp;lt;&amp;lt; abstract &amp;gt;&amp;gt;&lt;/i&gt;&lt;br&gt;&lt;/div&gt;&lt;div&gt;LowCodeBlock&lt;/div&gt;" style="swimlane;fontStyle=0;childLayout=stackLayout;horizontal=1;startSize=30;fillColor=none;horizontalStack=0;resizeParent=1;resizeParentMax=0;resizeLast=0;collapsible=1;marginBottom=0;whiteSpace=wrap;html=1;" vertex="1" parent="1">
          <mxGeometry x="1800" y="1666" width="220" height="332" as="geometry" />
        </mxCell>
        <mxCell id="eH06D5HPxaI-sK5qK4YA-5" value="&lt;div&gt;+ id: number&lt;/div&gt;&lt;br&gt;" style="text;strokeColor=none;fillColor=none;align=left;verticalAlign=top;spacingLeft=4;spacingRight=4;overflow=hidden;rotatable=0;points=[[0,0.5],[1,0.5]];portConstraint=eastwest;whiteSpace=wrap;html=1;" vertex="1" parent="eH06D5HPxaI-sK5qK4YA-4">
          <mxGeometry y="30" width="220" height="26" as="geometry" />
        </mxCell>
        <mxCell id="eH06D5HPxaI-sK5qK4YA-6" value="+ sourounding_block: LowCodeBlock" style="text;strokeColor=none;fillColor=none;align=left;verticalAlign=top;spacingLeft=4;spacingRight=4;overflow=hidden;rotatable=0;points=[[0,0.5],[1,0.5]];portConstraint=eastwest;whiteSpace=wrap;html=1;" vertex="1" parent="eH06D5HPxaI-sK5qK4YA-4">
          <mxGeometry y="56" width="220" height="26" as="geometry" />
        </mxCell>
        <mxCell id="eH06D5HPxaI-sK5qK4YA-7" value="+ project: Project" style="text;strokeColor=none;fillColor=none;align=left;verticalAlign=top;spacingLeft=4;spacingRight=4;overflow=hidden;rotatable=0;points=[[0,0.5],[1,0.5]];portConstraint=eastwest;whiteSpace=wrap;html=1;" vertex="1" parent="eH06D5HPxaI-sK5qK4YA-4">
          <mxGeometry y="82" width="220" height="26" as="geometry" />
        </mxCell>
        <mxCell id="eH06D5HPxaI-sK5qK4YA-54" value="+ position: Position" style="text;strokeColor=none;fillColor=none;align=left;verticalAlign=top;spacingLeft=4;spacingRight=4;overflow=hidden;rotatable=0;points=[[0,0.5],[1,0.5]];portConstraint=eastwest;whiteSpace=wrap;html=1;" vertex="1" parent="eH06D5HPxaI-sK5qK4YA-4">
          <mxGeometry y="108" width="220" height="26" as="geometry" />
        </mxCell>
        <mxCell id="eH06D5HPxaI-sK5qK4YA-14" value="&lt;div&gt;# can_contain_blocks: bool&lt;/div&gt;&lt;br&gt;" style="text;strokeColor=none;fillColor=none;align=left;verticalAlign=top;spacingLeft=4;spacingRight=4;overflow=hidden;rotatable=0;points=[[0,0.5],[1,0.5]];portConstraint=eastwest;whiteSpace=wrap;html=1;" vertex="1" parent="eH06D5HPxaI-sK5qK4YA-4">
          <mxGeometry y="134" width="220" height="26" as="geometry" />
        </mxCell>
        <mxCell id="eH06D5HPxaI-sK5qK4YA-13" value="# can_contain_categories: Category[]" style="text;strokeColor=none;fillColor=none;align=left;verticalAlign=top;spacingLeft=4;spacingRight=4;overflow=hidden;rotatable=0;points=[[0,0.5],[1,0.5]];portConstraint=eastwest;whiteSpace=wrap;html=1;" vertex="1" parent="eH06D5HPxaI-sK5qK4YA-4">
          <mxGeometry y="160" width="220" height="26" as="geometry" />
        </mxCell>
        <mxCell id="eH06D5HPxaI-sK5qK4YA-12" value="# category: Category" style="text;strokeColor=none;fillColor=none;align=left;verticalAlign=top;spacingLeft=4;spacingRight=4;overflow=hidden;rotatable=0;points=[[0,0.5],[1,0.5]];portConstraint=eastwest;whiteSpace=wrap;html=1;" vertex="1" parent="eH06D5HPxaI-sK5qK4YA-4">
          <mxGeometry y="186" width="220" height="26" as="geometry" />
        </mxCell>
        <mxCell id="eH06D5HPxaI-sK5qK4YA-17" value="" style="line;strokeWidth=1;fillColor=none;align=left;verticalAlign=middle;spacingTop=-1;spacingLeft=3;spacingRight=3;rotatable=0;labelPosition=right;points=[];portConstraint=eastwest;strokeColor=inherit;" vertex="1" parent="eH06D5HPxaI-sK5qK4YA-4">
          <mxGeometry y="212" width="220" height="8" as="geometry" />
        </mxCell>
        <mxCell id="eH06D5HPxaI-sK5qK4YA-18" value="get_all_inputs(): Method[]" style="text;strokeColor=none;fillColor=none;align=left;verticalAlign=top;spacingLeft=4;spacingRight=4;overflow=hidden;rotatable=0;points=[[0,0.5],[1,0.5]];portConstraint=eastwest;whiteSpace=wrap;html=1;" vertex="1" parent="eH06D5HPxaI-sK5qK4YA-4">
          <mxGeometry y="220" width="220" height="26" as="geometry" />
        </mxCell>
        <mxCell id="eH06D5HPxaI-sK5qK4YA-19" value="get_all_outputs(): Method[]" style="text;strokeColor=none;fillColor=none;align=left;verticalAlign=top;spacingLeft=4;spacingRight=4;overflow=hidden;rotatable=0;points=[[0,0.5],[1,0.5]];portConstraint=eastwest;whiteSpace=wrap;html=1;" vertex="1" parent="eH06D5HPxaI-sK5qK4YA-4">
          <mxGeometry y="246" width="220" height="26" as="geometry" />
        </mxCell>
        <mxCell id="eH06D5HPxaI-sK5qK4YA-20" value="get_all_attribute(): Method[]" style="text;strokeColor=none;fillColor=none;align=left;verticalAlign=top;spacingLeft=4;spacingRight=4;overflow=hidden;rotatable=0;points=[[0,0.5],[1,0.5]];portConstraint=eastwest;whiteSpace=wrap;html=1;" vertex="1" parent="eH06D5HPxaI-sK5qK4YA-4">
          <mxGeometry y="272" width="220" height="26" as="geometry" />
        </mxCell>
        <mxCell id="eH06D5HPxaI-sK5qK4YA-21" value="" style="line;strokeWidth=1;fillColor=none;align=left;verticalAlign=middle;spacingTop=-1;spacingLeft=3;spacingRight=3;rotatable=0;labelPosition=right;points=[];portConstraint=eastwest;strokeColor=inherit;" vertex="1" parent="eH06D5HPxaI-sK5qK4YA-4">
          <mxGeometry y="298" width="220" height="8" as="geometry" />
        </mxCell>
        <mxCell id="eH06D5HPxaI-sK5qK4YA-16" value="# Class Attribute | + Instance Attribute" style="text;strokeColor=none;fillColor=none;align=left;verticalAlign=top;spacingLeft=4;spacingRight=4;overflow=hidden;rotatable=0;points=[[0,0.5],[1,0.5]];portConstraint=eastwest;whiteSpace=wrap;html=1;" vertex="1" parent="eH06D5HPxaI-sK5qK4YA-4">
          <mxGeometry y="306" width="220" height="26" as="geometry" />
        </mxCell>
        <mxCell id="eH06D5HPxaI-sK5qK4YA-45" value="0..*" style="endArrow=none;html=1;endSize=12;startArrow=diamondThin;startSize=14;startFill=0;edgeStyle=orthogonalEdgeStyle;align=left;verticalAlign=bottom;rounded=0;exitX=0.5;exitY=0;exitDx=0;exitDy=0;entryX=1;entryY=0.5;entryDx=0;entryDy=0;endFill=0;" edge="1" parent="eH06D5HPxaI-sK5qK4YA-4" source="eH06D5HPxaI-sK5qK4YA-4" target="eH06D5HPxaI-sK5qK4YA-6">
          <mxGeometry x="-0.7685" y="-10" relative="1" as="geometry">
            <mxPoint x="260" y="184" as="sourcePoint" />
            <mxPoint x="420" y="184" as="targetPoint" />
            <Array as="points">
              <mxPoint x="110" y="-26" />
              <mxPoint x="260" y="-26" />
              <mxPoint x="260" y="69" />
            </Array>
            <mxPoint as="offset" />
          </mxGeometry>
        </mxCell>
        <mxCell id="eH06D5HPxaI-sK5qK4YA-46" value="0/1" style="edgeLabel;html=1;align=center;verticalAlign=middle;resizable=0;points=[];" vertex="1" connectable="0" parent="eH06D5HPxaI-sK5qK4YA-45">
          <mxGeometry x="0.9157" relative="1" as="geometry">
            <mxPoint as="offset" />
          </mxGeometry>
        </mxCell>
        <mxCell id="eH06D5HPxaI-sK5qK4YA-8" value="Project" style="swimlane;fontStyle=0;childLayout=stackLayout;horizontal=1;startSize=26;fillColor=none;horizontalStack=0;resizeParent=1;resizeParentMax=0;resizeLast=0;collapsible=1;marginBottom=0;whiteSpace=wrap;html=1;" vertex="1" parent="1">
          <mxGeometry x="1530" y="1666" width="210" height="78" as="geometry" />
        </mxCell>
        <mxCell id="eH06D5HPxaI-sK5qK4YA-9" value="&lt;div&gt;+ id: number&lt;/div&gt;&lt;br&gt;" style="text;strokeColor=none;fillColor=none;align=left;verticalAlign=top;spacingLeft=4;spacingRight=4;overflow=hidden;rotatable=0;points=[[0,0.5],[1,0.5]];portConstraint=eastwest;whiteSpace=wrap;html=1;" vertex="1" parent="eH06D5HPxaI-sK5qK4YA-8">
          <mxGeometry y="26" width="210" height="26" as="geometry" />
        </mxCell>
        <mxCell id="eH06D5HPxaI-sK5qK4YA-10" value="+ sourounding_block: LowCodeBlock" style="text;strokeColor=none;fillColor=none;align=left;verticalAlign=top;spacingLeft=4;spacingRight=4;overflow=hidden;rotatable=0;points=[[0,0.5],[1,0.5]];portConstraint=eastwest;whiteSpace=wrap;html=1;" vertex="1" parent="eH06D5HPxaI-sK5qK4YA-8">
          <mxGeometry y="52" width="210" height="26" as="geometry" />
        </mxCell>
        <mxCell id="eH06D5HPxaI-sK5qK4YA-22" value="Category" style="swimlane;fontStyle=0;childLayout=stackLayout;horizontal=1;startSize=26;fillColor=none;horizontalStack=0;resizeParent=1;resizeParentMax=0;resizeLast=0;collapsible=1;marginBottom=0;whiteSpace=wrap;html=1;" vertex="1" parent="1">
          <mxGeometry x="1530" y="1800" width="210" height="78" as="geometry" />
        </mxCell>
        <mxCell id="eH06D5HPxaI-sK5qK4YA-23" value="&lt;div&gt;+ id: number&lt;/div&gt;&lt;br&gt;" style="text;strokeColor=none;fillColor=none;align=left;verticalAlign=top;spacingLeft=4;spacingRight=4;overflow=hidden;rotatable=0;points=[[0,0.5],[1,0.5]];portConstraint=eastwest;whiteSpace=wrap;html=1;" vertex="1" parent="eH06D5HPxaI-sK5qK4YA-22">
          <mxGeometry y="26" width="210" height="26" as="geometry" />
        </mxCell>
        <mxCell id="eH06D5HPxaI-sK5qK4YA-24" value="+ label: string" style="text;strokeColor=none;fillColor=none;align=left;verticalAlign=top;spacingLeft=4;spacingRight=4;overflow=hidden;rotatable=0;points=[[0,0.5],[1,0.5]];portConstraint=eastwest;whiteSpace=wrap;html=1;" vertex="1" parent="eH06D5HPxaI-sK5qK4YA-22">
          <mxGeometry y="52" width="210" height="26" as="geometry" />
        </mxCell>
        <mxCell id="eH06D5HPxaI-sK5qK4YA-47" value="1" style="endArrow=none;html=1;endSize=12;startArrow=diamondThin;startSize=14;startFill=1;edgeStyle=orthogonalEdgeStyle;align=left;verticalAlign=bottom;rounded=0;exitX=1;exitY=0.16;exitDx=0;exitDy=0;entryX=0;entryY=0.5;entryDx=0;entryDy=0;endFill=0;exitPerimeter=0;" edge="1" parent="1" source="eH06D5HPxaI-sK5qK4YA-8" target="eH06D5HPxaI-sK5qK4YA-7">
          <mxGeometry x="-1" y="3" relative="1" as="geometry">
            <mxPoint x="2030" y="1850" as="sourcePoint" />
            <mxPoint x="2190" y="1850" as="targetPoint" />
          </mxGeometry>
        </mxCell>
        <mxCell id="eH06D5HPxaI-sK5qK4YA-48" value="0...*" style="edgeLabel;html=1;align=center;verticalAlign=middle;resizable=0;points=[];" vertex="1" connectable="0" parent="eH06D5HPxaI-sK5qK4YA-47">
          <mxGeometry x="0.6956" y="1" relative="1" as="geometry">
            <mxPoint as="offset" />
          </mxGeometry>
        </mxCell>
        <mxCell id="eH06D5HPxaI-sK5qK4YA-51" value="Position" style="swimlane;fontStyle=0;childLayout=stackLayout;horizontal=1;startSize=26;fillColor=none;horizontalStack=0;resizeParent=1;resizeParentMax=0;resizeLast=0;collapsible=1;marginBottom=0;whiteSpace=wrap;html=1;" vertex="1" parent="1">
          <mxGeometry x="1530" y="1904" width="210" height="78" as="geometry" />
        </mxCell>
        <mxCell id="eH06D5HPxaI-sK5qK4YA-52" value="&lt;div&gt;+ x: number&lt;/div&gt;" style="text;strokeColor=none;fillColor=none;align=left;verticalAlign=top;spacingLeft=4;spacingRight=4;overflow=hidden;rotatable=0;points=[[0,0.5],[1,0.5]];portConstraint=eastwest;whiteSpace=wrap;html=1;" vertex="1" parent="eH06D5HPxaI-sK5qK4YA-51">
          <mxGeometry y="26" width="210" height="26" as="geometry" />
        </mxCell>
        <mxCell id="eH06D5HPxaI-sK5qK4YA-53" value="+ y: number" style="text;strokeColor=none;fillColor=none;align=left;verticalAlign=top;spacingLeft=4;spacingRight=4;overflow=hidden;rotatable=0;points=[[0,0.5],[1,0.5]];portConstraint=eastwest;whiteSpace=wrap;html=1;" vertex="1" parent="eH06D5HPxaI-sK5qK4YA-51">
          <mxGeometry y="52" width="210" height="26" as="geometry" />
        </mxCell>
        <mxCell id="eH06D5HPxaI-sK5qK4YA-55" value="1" style="endArrow=none;html=1;endSize=12;startArrow=none;startSize=14;startFill=0;edgeStyle=orthogonalEdgeStyle;align=left;verticalAlign=bottom;rounded=0;exitX=1;exitY=0.5;exitDx=0;exitDy=0;entryX=0;entryY=0.5;entryDx=0;entryDy=0;endFill=0;" edge="1" parent="1" source="eH06D5HPxaI-sK5qK4YA-23" target="eH06D5HPxaI-sK5qK4YA-13">
          <mxGeometry x="-1" y="3" relative="1" as="geometry">
            <mxPoint x="1739.5" y="1730" as="sourcePoint" />
            <mxPoint x="1799.5" y="1838" as="targetPoint" />
          </mxGeometry>
        </mxCell>
        <mxCell id="eH06D5HPxaI-sK5qK4YA-56" value="0...*" style="edgeLabel;html=1;align=center;verticalAlign=middle;resizable=0;points=[];" vertex="1" connectable="0" parent="eH06D5HPxaI-sK5qK4YA-55">
          <mxGeometry x="0.6956" y="1" relative="1" as="geometry">
            <mxPoint as="offset" />
          </mxGeometry>
        </mxCell>
        <mxCell id="eH06D5HPxaI-sK5qK4YA-57" value="1" style="endArrow=none;html=1;endSize=12;startArrow=none;startSize=14;startFill=0;edgeStyle=orthogonalEdgeStyle;align=left;verticalAlign=bottom;rounded=0;exitX=1;exitY=0.5;exitDx=0;exitDy=0;entryX=0;entryY=0.5;entryDx=0;entryDy=0;endFill=0;" edge="1" parent="1" source="eH06D5HPxaI-sK5qK4YA-24" target="eH06D5HPxaI-sK5qK4YA-12">
          <mxGeometry x="-1" y="3" relative="1" as="geometry">
            <mxPoint x="1750" y="1849" as="sourcePoint" />
            <mxPoint x="1810" y="1849" as="targetPoint" />
          </mxGeometry>
        </mxCell>
        <mxCell id="eH06D5HPxaI-sK5qK4YA-58" value="0...*" style="edgeLabel;html=1;align=center;verticalAlign=middle;resizable=0;points=[];" vertex="1" connectable="0" parent="eH06D5HPxaI-sK5qK4YA-57">
          <mxGeometry x="0.6956" y="1" relative="1" as="geometry">
            <mxPoint as="offset" />
          </mxGeometry>
        </mxCell>
        <mxCell id="eH06D5HPxaI-sK5qK4YA-60" value="BlockConnection" style="swimlane;fontStyle=0;childLayout=stackLayout;horizontal=1;startSize=26;fillColor=none;horizontalStack=0;resizeParent=1;resizeParentMax=0;resizeLast=0;collapsible=1;marginBottom=0;whiteSpace=wrap;html=1;" vertex="1" parent="1">
          <mxGeometry x="2130" y="1748" width="210" height="156" as="geometry" />
        </mxCell>
        <mxCell id="eH06D5HPxaI-sK5qK4YA-61" value="&lt;div&gt;+ id: number&lt;/div&gt;&lt;br&gt;" style="text;strokeColor=none;fillColor=none;align=left;verticalAlign=top;spacingLeft=4;spacingRight=4;overflow=hidden;rotatable=0;points=[[0,0.5],[1,0.5]];portConstraint=eastwest;whiteSpace=wrap;html=1;" vertex="1" parent="eH06D5HPxaI-sK5qK4YA-60">
          <mxGeometry y="26" width="210" height="26" as="geometry" />
        </mxCell>
        <mxCell id="eH06D5HPxaI-sK5qK4YA-62" value="+ start_block: LowCodeBlock" style="text;strokeColor=none;fillColor=none;align=left;verticalAlign=top;spacingLeft=4;spacingRight=4;overflow=hidden;rotatable=0;points=[[0,0.5],[1,0.5]];portConstraint=eastwest;whiteSpace=wrap;html=1;" vertex="1" parent="eH06D5HPxaI-sK5qK4YA-60">
          <mxGeometry y="52" width="210" height="26" as="geometry" />
        </mxCell>
        <mxCell id="eH06D5HPxaI-sK5qK4YA-69" value="+ start_block_output_id: number" style="text;strokeColor=none;fillColor=none;align=left;verticalAlign=top;spacingLeft=4;spacingRight=4;overflow=hidden;rotatable=0;points=[[0,0.5],[1,0.5]];portConstraint=eastwest;whiteSpace=wrap;html=1;" vertex="1" parent="eH06D5HPxaI-sK5qK4YA-60">
          <mxGeometry y="78" width="210" height="26" as="geometry" />
        </mxCell>
        <mxCell id="eH06D5HPxaI-sK5qK4YA-68" value="+ end_block: LowCodeBlock" style="text;strokeColor=none;fillColor=none;align=left;verticalAlign=top;spacingLeft=4;spacingRight=4;overflow=hidden;rotatable=0;points=[[0,0.5],[1,0.5]];portConstraint=eastwest;whiteSpace=wrap;html=1;" vertex="1" parent="eH06D5HPxaI-sK5qK4YA-60">
          <mxGeometry y="104" width="210" height="26" as="geometry" />
        </mxCell>
        <mxCell id="eH06D5HPxaI-sK5qK4YA-67" value="+ end_block_input_id: number" style="text;strokeColor=none;fillColor=none;align=left;verticalAlign=top;spacingLeft=4;spacingRight=4;overflow=hidden;rotatable=0;points=[[0,0.5],[1,0.5]];portConstraint=eastwest;whiteSpace=wrap;html=1;" vertex="1" parent="eH06D5HPxaI-sK5qK4YA-60">
          <mxGeometry y="130" width="210" height="26" as="geometry" />
        </mxCell>
        <mxCell id="eH06D5HPxaI-sK5qK4YA-70" style="edgeStyle=orthogonalEdgeStyle;rounded=0;orthogonalLoop=1;jettySize=auto;html=1;entryX=0.75;entryY=0;entryDx=0;entryDy=0;endArrow=none;endFill=0;" edge="1" parent="1" source="eH06D5HPxaI-sK5qK4YA-62" target="eH06D5HPxaI-sK5qK4YA-4">
          <mxGeometry relative="1" as="geometry" />
        </mxCell>
        <mxCell id="eH06D5HPxaI-sK5qK4YA-73" value="0...*" style="edgeLabel;html=1;align=center;verticalAlign=middle;resizable=0;points=[];" vertex="1" connectable="0" parent="eH06D5HPxaI-sK5qK4YA-70">
          <mxGeometry x="-0.9691" relative="1" as="geometry">
            <mxPoint x="-14" as="offset" />
          </mxGeometry>
        </mxCell>
        <mxCell id="eH06D5HPxaI-sK5qK4YA-71" style="edgeStyle=orthogonalEdgeStyle;rounded=0;orthogonalLoop=1;jettySize=auto;html=1;entryX=0.75;entryY=0;entryDx=0;entryDy=0;endArrow=none;endFill=0;" edge="1" parent="1" source="eH06D5HPxaI-sK5qK4YA-67" target="eH06D5HPxaI-sK5qK4YA-4">
          <mxGeometry relative="1" as="geometry" />
        </mxCell>
        <mxCell id="eH06D5HPxaI-sK5qK4YA-72" value="1" style="edgeLabel;html=1;align=center;verticalAlign=middle;resizable=0;points=[];" vertex="1" connectable="0" parent="eH06D5HPxaI-sK5qK4YA-71">
          <mxGeometry x="0.9638" y="1" relative="1" as="geometry">
            <mxPoint x="4" y="-8" as="offset" />
          </mxGeometry>
        </mxCell>
        <mxCell id="eH06D5HPxaI-sK5qK4YA-75" value="0...*" style="edgeLabel;html=1;align=center;verticalAlign=middle;resizable=0;points=[];" vertex="1" connectable="0" parent="1">
          <mxGeometry x="2110.0044444444447" y="1890" as="geometry" />
        </mxCell>
      </root>
    </mxGraphModel>
  </diagram>
</mxfile>
